<svg style="display: none" xmlns="http://www.w3.org/2000/svg" xmlns:xlink="http://www.w3.org/1999/xlink">

    <svg id="bin" viewBox="0 0 80 100" xml:space="preserve">
        <path style="stroke: none; stroke-width: 1; stroke-dasharray: none; stroke-linecap: butt; stroke-dashoffset: 0; stroke-linejoin: miter; stroke-miterlimit: 4; fill: var(--color-svg-fill); fill-rule: nonzero; opacity: 1;" vector-effect="non-scaling-stroke" d="M 80.00178 12.5 L 80.00178 17.5 C 80.00178 18.88 78.88177999999999 19.999 77.50178 19.999 L 2.5 19.999 C 1.119 19.999 0 18.88 0 17.5 L 0 12.5 C 0 11.119 1.119 10 2.5 10 L 24.99989 10 L 24.99989 5 C 24.99989 2.239 27.23889 0 29.99989 0 L 50.00078 0 C 52.76278 0 55.00078 2.238 55.00078 5 L 55.00078 10 L 77.50166999999999 10 C 78.88166999999999 10 80.00166999999999 11.119 80.00166999999999 12.5 z M 9.35 90.69897 C 9.718 95.94697000000001 14.088999999999999 100.01197 19.351 99.99997 L 60.74989 99.99997 C 66.01089 100.01297000000001 70.38189 95.94697000000001 70.75089 90.69897 L 75.00089 29.999990000000004 L 4.999110000000002 29.999990000000004 z" stroke-linecap="round"/>
    </svg>

	<svg id="logo" viewBox="0 0 256 244" xmlns="http://www.w3.org/2000/svg" preserveAspectRatio="xMidYMid"><path d="M177.381 169.733c9.447-.978 16.614-9.122 16.288-18.896-.325-9.773-8.47-17.592-18.243-17.592h-.651c-10.1.326-17.918 8.796-17.592 18.895.326 4.887 2.28 9.122 5.212 12.054-11.076 21.828-28.016 37.791-53.426 51.148-17.266 9.122-35.183 12.38-53.1 10.1-14.66-1.955-26.062-8.47-33.23-19.222-10.424-15.963-11.401-33.23-2.605-50.496 6.19-12.38 15.962-21.502 22.152-26.063-1.303-4.235-3.258-11.402-4.235-16.614-47.237 34.207-42.35 80.468-28.016 102.295 10.75 16.29 32.577 26.389 56.684 26.389 6.515 0 13.03-.652 19.546-2.28 41.699-8.145 73.299-32.905 91.216-69.718zm57.336-40.397c-24.759-28.995-61.245-44.958-102.944-44.958h-5.212c-2.932-5.864-9.122-9.774-15.963-9.774h-.652C99.848 74.93 92.03 83.4 92.355 93.5c.326 9.773 8.47 17.592 18.243 17.592h.651c7.167-.326 13.357-4.887 15.963-11.077h5.864c24.759 0 48.214 7.167 69.39 21.176 16.288 10.751 28.016 24.76 34.531 41.7 5.538 13.683 5.212 27.04-.652 38.443-9.121 17.266-24.432 26.714-44.63 26.714-13.031 0-25.41-3.91-31.926-6.842-3.583 3.258-10.099 8.47-14.66 11.729 14.009 6.515 28.343 10.099 42.025 10.099 31.274 0 54.404-17.267 63.2-34.533 9.447-18.896 8.795-51.474-15.637-79.165zM69.225 175.27c.326 9.774 8.47 17.592 18.243 17.592h.652c10.099-.325 17.917-8.796 17.591-18.895-.325-9.774-8.47-17.592-18.243-17.592h-.651c-.652 0-1.63 0-2.28.325-13.357-22.153-18.895-46.26-16.94-72.323 1.302-19.547 7.818-36.488 19.22-50.497 9.447-12.054 27.69-17.918 40.07-18.243 34.531-.652 49.19 42.351 50.168 59.618 4.235.977 11.402 3.258 16.289 4.887C189.434 27.366 156.857 0 125.584 0c-29.32 0-56.359 21.176-67.11 52.451-14.985 41.7-5.212 81.771 13.031 113.372-1.628 2.28-2.606 5.864-2.28 9.448z" fill=""/></svg>

	<svg id="home" viewBox="0 0 16 17" fill="none" xmlns="http://www.w3.org/2000/svg">
    	<path d="M6 10.4404C6 10.0722 6.29848 9.77376 6.66667 9.77376H9.33333C9.70152 9.77376 10 10.0722 10 10.4404V13.1071H12.6667V8.71657L8 4.04991L3.33333 8.71657V13.1071H6V10.4404ZM7.33333 11.1071V13.7738C7.33333 14.142 7.03486 14.4404 6.66667 14.4404H2.66667C2.29848 14.4404 2 14.142 2 13.7738V8.44043C2 8.26362 2.07024 8.09405 2.19526 7.96903L7.5286 2.63569C7.78895 2.37534 8.21106 2.37534 8.4714 2.63569L13.8047 7.96903C13.9298 8.09405 14 8.26362 14 8.44043V13.7738C14 14.142 13.7015 14.4404 13.3333 14.4404H9.33333C8.96514 14.4404 8.66667 14.142 8.66667 13.7738V11.1071H7.33333Z" fill="#808185" />
	</svg>

	<svg id="logout" xmlns="http://www.w3.org/2000/svg" enable-background="new 0 0 24 24" viewBox="0 0 24 24"><path fill="#fff" d="M4,12c0,0.276123,0.223877,0.5,0.5,0.5h8.7930298l-2.6465454,2.6464844c-0.09375,0.09375-0.1464233,0.2208862-0.1464233,0.3534546C10.5,15.776062,10.723877,15.999939,11,16c0.1326294,0.0001221,0.2598267-0.0525513,0.3534546-0.1464844l3.5-3.5c0.000061-0.000061,0.0001221-0.000061,0.0001831-0.0001221c0.1951294-0.1952515,0.1950684-0.5117188-0.0001831-0.7068481l-3.5-3.5c-0.1937256-0.1871338-0.5009155-0.1871338-0.6947021,0c-0.1986084,0.1918335-0.2041016,0.5083618-0.0122681,0.7069702L13.2930298,11.5H4.5C4.223877,11.5,4,11.723877,4,12z M17.5,2h-11C5.119812,2.0012817,4.0012817,3.119812,4,4.5v4C4,8.776123,4.223877,9,4.5,9S5,8.776123,5,8.5v-4C5.0009155,3.671936,5.671936,3.0009155,6.5,3h11c0.828064,0.0009155,1.4990845,0.671936,1.5,1.5v15c-0.0009155,0.828064-0.671936,1.4990845-1.5,1.5h-11c-0.828064-0.0009155-1.4990845-0.671936-1.5-1.5v-4C5,15.223877,4.776123,15,4.5,15S4,15.223877,4,15.5v4c0.0012817,1.380188,1.119812,2.4987183,2.5,2.5h11c1.380188-0.0012817,2.4987183-1.119812,2.5-2.5v-15C19.9987183,3.119812,18.880188,2.0012817,17.5,2z" /></svg>

	<svg id="heart" xmlns="http://www.w3.org/2000/svg" viewBox="0 0 24 24">
		<path d="M11.8456 6.42726L12 6.59097L12.1544 6.42726C14.132 4.33053 17.4026 4.57697 19.0807 6.94915C20.57 9.05459 20.2133 12.0335 18.275 13.6776L12 19L5.725 13.6776C3.78668 12.0335 3.42999 9.05459 4.91934 6.94915C6.59738 4.57698 9.86801 4.33053 11.8456 6.42726Z" stroke="" stroke-linecap="round" stroke-linejoin="round"/>
	</svg>
</svg>